<svg xmlns="http://www.w3.org/2000/svg" width="26" height="23" viewBox="0 0 26 23"><path fill="#fff" d="M26 18.85V10.2c0-.83-.67-1.16-1.5-1.16h-5.52V2.07c0-.83-.2-1.07-1.03-1.07H.97C.14 1 0 1.27 0 2.1v14.75c0 .83.3 1.13 1.13 1.13H5.8A33 33 0 0 0 5.8 20c.04.25.65.5.93.29.7-.58 1.97-1.7 2.67-2.31H11.02c-.1 0-.09 0 0 0h6.37c.83 0 1.59-.93 1.59-1.76v-6.2H25V19h-6V21l-1.06-2-5.93-.01.04-.98-1.03-.03v.87c0 .83.15 1.15.98 1.15H16.94c1.06 1.72 1.38 2.34 2.07 2.92.28.21.92-.04.96-.3.02-.13.03-1.65.02-2.6L25 20c.83 0 1-.32 1-1.15zM8.98 16.98l-2.02 1.96-.01-1.96H1V2.04L18 2.03l-.03 14.95zm-3.81-3.95h9.06c.29 0 .51-.16.51-.45v-.02c0-.29-.23-.57-.5-.57H5.16c-.29 0-.51.27-.51.55v.04c0 .29.22.45.5.45zm7.33-6.44v-.03c0-.28-.23-.56-.51-.56H5.17c-.28 0-.51.26-.51.55v.04c0 .28.23.44.5.44H12c.28 0 .5-.16.5-.44zM5.17 9.01h4.57c.28 0 .51.25.51.54v.02c0 .28-.23.44-.5.44H5.16c-.29 0-.51-.16-.51-.44v-.04c0-.29.22-.52.5-.52z"/></svg>