<svg xmlns="http://www.w3.org/2000/svg" width="24" height="24" viewBox="0 0 24 24"><path fill="#c7cdd9" d="M19.57 13.7c-.4 0-.58.3-.58.7v8.58H15v-4.35a.7.7 0 0 0-.67-.7H9.68a.7.7 0 0 0-.71.7v4.35h-4v-8.66c0-.37 0-.61-.39-.61-.36 0-.6.24-.6.61v9c0 .37.3.68.67.68h4.7c.36 0 .66-.31.66-.68v-4.2h4v4.2c0 .37.3.68.69.68h4.63c.37 0 .67-.31.67-.68V14.4c0-.4-.07-.71-.43-.71zm4.3-.85l-5.86-5.86V2.8c0-.4-.1-.57-.5-.57-.37 0-.53.2-.53.6v2.97L12.5 1.22a.66.66 0 0 0-.47-.22.68.68 0 0 0-.49.22L.2 12.77c-.27.28.16.55.45.8.26.3.82-.28 1.1-.55L12 2.05 22.7 13.37c.1.11.32.28.54.28.19 0 .2.07.34-.05.25-.26.58-.47.3-.75z"/></svg>