<svg xmlns="http://www.w3.org/2000/svg" width="25" height="25" viewBox="0 0 25 25"><path fill="#fff" d="M23.92 20.68a.7.7 0 0 1-.64.37H.74a.7.7 0 0 1-.64-.37c-.07-.12-.1-.38-.1-.5a.7.7 0 0 1 .15-.4 16.38 16.38 0 0 0 2.1-4.37C2.74 13.87 3.63 11.91 4 9c.22-1.7.47-3.39 1.24-4.3a8.25 8.25 0 0 1 4.1-2.57c.13-.61.44-1.12.94-1.52.5-.4 1.07-.6 1.72-.6.65 0 1.22.2 1.72.6.51.4.83.9.96 1.51a8.24 8.24 0 0 1 4.08 2.58 8 8 0 0 1 1.7 4.04c.39 2.91.81 5.14 1.3 6.67a17.09 17.09 0 0 0 2.11 4.53c.08.12.13.25.13.39 0 .11-.02.23-.08.35zm-3.75-5.59A52.6 52.6 0 0 1 19 8.92a6.67 6.67 0 0 0-1.44-3.4 7.23 7.23 0 0 0-3.73-2.12.72.72 0 0 1-.56-.7v-.02c0-.69-.56-1.24-1.28-1.24-.7 0-1.29.55-1.29 1.24v.03a.7.7 0 0 1-.53.68c-.9.2-1.68.5-2.58 1.1A6.02 6.02 0 0 0 5 8.92a57.62 57.62 0 0 1-1.16 6.18A21.27 21.27 0 0 1 2 20h20a21.84 21.84 0 0 1-1.83-4.91zm-6.04 6.8H9.87c0 .58.2 1.07.62 1.48.43.43.93.64 1.52.64.6 0 1.09-.22 1.5-.64.4-.41.62-.9.62-1.48z"/></svg>